<?xml version="1.0" standalone="no"?>
<!DOCTYPE svg PUBLIC "-//W3C//DTD SVG 20010904//EN"
 "http://www.w3.org/TR/2001/REC-SVG-20010904/DTD/svg10.dtd">
<svg version="1.0" xmlns="http://www.w3.org/2000/svg"
 width="700.000000pt" height="700.000000pt" viewBox="0 0 700.000000 700.000000"
 preserveAspectRatio="xMidYMid meet">
<metadata>
Created by potrace 1.14, written by Peter Selinger 2001-2017
</metadata>
<g transform="translate(0.000000,700.000000) scale(0.100000,-0.100000)"
fill="#000000" stroke="none">
<path d="M3447 6344 c-1 -1 -51 -4 -112 -8 -124 -7 -164 -11 -285 -33 -47 -8
-98 -17 -115 -19 -29 -5 -170 -41 -250 -64 -295 -86 -667 -280 -930 -488 -446
-350 -769 -807 -952 -1347 -59 -174 -115 -430 -128 -585 -3 -36 -8 -82 -11
-104 -3 -21 -6 -113 -6 -205 -1 -152 2 -199 18 -346 10 -88 34 -228 55 -315
12 -47 22 -92 24 -100 21 -95 111 -337 179 -483 62 -133 206 -376 268 -452 5
-5 27 -35 50 -65 167 -218 401 -440 643 -610 290 -204 697 -379 1030 -445 22
-5 46 -9 53 -11 76 -15 165 -27 282 -40 140 -15 516 -9 616 10 10 2 44 7 74
11 321 41 721 183 1025 363 390 231 737 569 977 952 204 326 360 748 404 1095
3 28 8 57 9 66 10 53 19 217 19 354 1 174 -7 288 -29 435 -12 82 -21 126 -50
256 -52 232 -206 595 -346 819 -62 100 -195 281 -266 365 -175 204 -444 432
-686 579 -253 154 -608 297 -862 347 -11 2 -31 6 -45 9 -88 19 -281 45 -368
51 -96 6 -281 11 -285 8z m338 -539 c22 -3 83 -13 135 -21 187 -31 350 -80
550 -167 594 -259 1075 -788 1273 -1402 36 -110 80 -292 91 -372 23 -166 27
-222 26 -368 -1 -204 -5 -243 -41 -430 -43 -226 -99 -400 -187 -580 -228 -466
-591 -838 -1043 -1069 -208 -106 -471 -195 -657 -222 -20 -3 -43 -7 -49 -9 -7
-2 -43 -7 -80 -11 -38 -3 -84 -8 -103 -10 -51 -5 -318 -5 -365 0 -22 3 -62 8
-90 11 -27 2 -61 7 -75 10 -13 2 -42 7 -65 10 -70 11 -266 62 -360 95 -505
179 -945 536 -1225 995 -128 210 -248 513 -286 725 -3 14 -7 32 -9 40 -48 171
-54 594 -11 835 8 44 17 94 20 112 14 73 79 281 121 386 271 662 837 1169
1525 1366 58 16 119 32 135 34 17 3 54 11 83 17 145 32 551 47 687 25z"/>
</g>
</svg>
